<svg id="svg" version="1.1" width="400" height="400" viewBox="0 0 400 400" xmlns="http://www.w3.org/2000/svg" xmlns:xlink="http://www.w3.org/1999/xlink" ><g id="svgg"><path id="path0" d="M196.800 20.000 C 196.250 20.176,193.696 20.338,191.124 20.360 C 188.432 20.383,186.341 20.573,186.196 20.807 C 186.058 21.030,185.802 21.125,185.628 21.017 C 185.454 20.910,183.892 21.105,182.156 21.452 C 180.420 21.798,178.010 22.141,176.800 22.214 C 175.590 22.288,174.240 22.378,173.800 22.415 C 172.787 22.501,168.317 23.604,167.876 23.877 C 167.694 23.989,166.657 24.143,165.571 24.218 C 164.486 24.293,163.373 24.495,163.099 24.667 C 162.824 24.838,162.420 24.989,162.200 25.001 C 161.048 25.064,159.200 25.714,159.200 26.055 C 159.200 26.271,159.032 26.344,158.828 26.217 C 158.623 26.091,158.353 26.153,158.227 26.356 C 158.102 26.559,157.660 26.636,157.245 26.528 C 156.830 26.419,156.374 26.518,156.232 26.748 C 156.090 26.977,155.710 27.064,155.387 26.940 C 155.060 26.814,154.800 26.940,154.800 27.224 C 154.800 27.504,154.686 27.620,154.547 27.481 C 154.408 27.342,153.913 27.440,153.447 27.700 C 152.981 27.959,152.465 28.201,152.300 28.236 C 152.135 28.271,151.865 28.343,151.700 28.396 C 151.535 28.449,151.220 28.534,151.000 28.585 C 150.780 28.636,150.465 28.728,150.300 28.789 C 150.135 28.850,149.820 28.945,149.600 29.000 C 149.380 29.055,149.155 29.136,149.100 29.180 C 149.045 29.224,148.550 29.339,148.000 29.437 C 147.450 29.535,146.791 29.894,146.536 30.234 C 146.281 30.575,145.921 30.832,145.736 30.806 C 145.551 30.780,145.040 30.878,144.600 31.023 C 144.160 31.168,143.649 31.262,143.464 31.231 C 143.134 31.177,138.792 33.208,138.400 33.600 C 138.290 33.710,137.880 33.854,137.489 33.920 C 137.098 33.986,136.115 34.431,135.305 34.909 C 134.495 35.387,133.559 35.818,133.224 35.867 C 132.889 35.916,132.551 36.147,132.473 36.381 C 132.395 36.614,132.166 36.702,131.963 36.577 C 131.760 36.452,131.487 36.630,131.355 36.972 C 131.224 37.315,130.970 37.505,130.790 37.394 C 130.611 37.283,130.201 37.456,129.880 37.777 C 129.558 38.099,129.184 38.250,129.048 38.114 C 128.911 37.978,128.800 38.087,128.800 38.357 C 128.800 38.627,128.632 38.744,128.428 38.617 C 128.223 38.491,127.946 38.564,127.813 38.780 C 127.679 38.995,126.317 39.831,124.785 40.636 C 123.253 41.441,122.000 42.267,122.000 42.473 C 122.000 42.679,121.820 42.736,121.600 42.600 C 121.380 42.464,121.200 42.573,121.200 42.843 C 121.200 43.113,121.088 43.221,120.951 43.085 C 120.630 42.763,116.000 45.900,116.000 46.439 C 116.000 46.663,115.819 46.735,115.597 46.598 C 115.376 46.461,115.087 46.630,114.955 46.972 C 114.824 47.315,114.554 47.495,114.355 47.372 C 114.157 47.250,113.887 47.430,113.755 47.772 C 113.624 48.115,113.366 48.303,113.183 48.189 C 112.999 48.076,112.664 48.302,112.437 48.692 C 112.210 49.081,112.018 49.220,112.010 49.000 C 112.002 48.780,111.592 49.059,111.098 49.619 C 110.604 50.179,110.358 50.359,110.552 50.019 C 110.746 49.679,110.356 49.970,109.687 50.668 C 109.017 51.365,108.402 51.869,108.321 51.787 C 108.239 51.706,107.207 52.527,106.027 53.611 C 104.848 54.696,103.504 55.702,103.041 55.846 C 101.885 56.207,84.969 73.238,84.594 74.419 C 84.428 74.942,83.857 75.712,83.325 76.130 C 82.793 76.549,82.447 76.981,82.557 77.090 C 82.666 77.199,82.218 77.741,81.561 78.294 C 80.904 78.847,80.463 79.396,80.581 79.514 C 80.698 79.632,80.433 79.982,79.991 80.291 C 79.548 80.601,79.290 81.022,79.417 81.227 C 79.544 81.432,79.478 81.600,79.272 81.600 C 78.860 81.600,74.970 87.135,70.978 93.400 C 69.482 95.748,67.544 99.514,67.695 99.780 C 67.753 99.882,67.495 100.198,67.122 100.483 C 66.749 100.767,66.389 101.255,66.322 101.567 C 66.255 101.878,65.878 102.470,65.485 102.881 C 65.092 103.293,64.869 103.787,64.988 103.980 C 65.107 104.174,65.040 104.392,64.839 104.466 C 64.638 104.540,64.412 104.960,64.337 105.400 C 64.261 105.840,63.912 106.520,63.560 106.911 C 63.208 107.302,62.693 108.382,62.415 109.311 C 62.137 110.240,61.478 111.854,60.950 112.897 C 60.421 113.941,60.003 114.841,60.020 114.897 C 60.086 115.112,59.527 116.625,59.170 117.200 C 58.548 118.203,57.939 119.755,57.836 120.600 C 57.782 121.040,57.332 122.186,56.837 123.147 C 56.341 124.109,55.885 125.279,55.823 125.747 C 55.616 127.317,55.140 128.984,54.346 130.924 C 53.912 131.982,53.484 133.423,53.394 134.126 C 53.304 134.829,52.677 137.200,52.001 139.396 C 51.326 141.591,50.802 144.110,50.837 144.993 C 50.872 145.877,50.700 147.101,50.455 147.714 C 50.210 148.327,50.039 148.957,50.075 149.114 C 50.112 149.271,49.918 150.184,49.644 151.142 C 49.370 152.100,49.241 153.129,49.356 153.429 C 49.471 153.729,49.416 154.067,49.234 154.179 C 49.052 154.292,48.876 155.962,48.842 157.892 C 48.809 159.821,48.585 162.422,48.345 163.671 C 47.661 167.220,48.038 174.137,48.971 175.168 C 50.554 176.918,54.324 176.161,55.209 173.915 C 55.494 173.192,56.212 171.520,56.805 170.200 C 58.208 167.075,58.687 165.881,58.712 165.445 C 58.723 165.249,58.936 164.963,59.186 164.809 C 59.436 164.654,59.669 164.139,59.705 163.664 C 59.741 163.189,59.923 162.800,60.109 162.800 C 60.295 162.800,60.336 162.620,60.200 162.400 C 60.064 162.180,60.154 162.000,60.400 162.000 C 60.646 162.000,60.736 161.820,60.600 161.600 C 60.464 161.380,60.510 161.200,60.703 161.200 C 61.051 161.200,62.831 158.305,62.848 157.711 C 62.853 157.540,63.118 157.254,63.437 157.075 C 63.756 156.897,63.912 156.582,63.785 156.375 C 63.657 156.169,63.754 156.000,64.000 156.000 C 64.246 156.000,64.336 155.820,64.200 155.600 C 64.064 155.380,64.173 155.200,64.443 155.200 C 64.713 155.200,64.822 155.089,64.686 154.952 C 64.550 154.816,64.701 154.442,65.023 154.120 C 65.344 153.799,65.517 153.389,65.406 153.210 C 65.295 153.030,65.499 152.771,65.860 152.632 C 66.220 152.494,66.407 152.274,66.276 152.143 C 66.145 152.012,66.255 151.672,66.519 151.388 C 67.440 150.398,72.502 142.800,72.241 142.800 C 72.146 142.800,72.586 142.215,73.219 141.500 C 73.852 140.785,74.358 140.110,74.344 140.000 C 74.329 139.890,74.967 139.110,75.762 138.268 C 76.557 137.425,77.112 136.582,76.996 136.394 C 76.880 136.206,77.423 135.565,78.203 134.970 C 78.984 134.375,79.548 133.814,79.457 133.723 C 79.366 133.633,80.263 132.640,81.450 131.517 C 82.638 130.394,83.545 129.411,83.466 129.333 C 83.388 129.255,84.196 128.248,85.261 127.095 C 86.327 125.943,87.964 124.167,88.899 123.149 C 89.835 122.131,90.717 121.321,90.861 121.349 C 91.004 121.377,92.608 120.050,94.426 118.400 C 96.243 116.750,98.153 115.116,98.668 114.770 C 99.184 114.423,99.518 114.051,99.409 113.943 C 99.301 113.834,99.876 113.128,100.689 112.373 C 101.501 111.618,101.903 111.355,101.583 111.790 C 101.262 112.224,101.855 111.887,102.900 111.041 C 103.945 110.196,104.800 109.335,104.800 109.128 C 104.800 108.922,104.968 108.856,105.173 108.983 C 105.378 109.110,105.799 108.852,106.109 108.409 C 106.418 107.967,106.786 107.720,106.926 107.860 C 107.067 108.000,107.294 107.820,107.432 107.460 C 107.571 107.099,107.846 106.905,108.045 107.028 C 108.243 107.150,108.513 106.970,108.645 106.628 C 108.776 106.285,109.025 106.092,109.197 106.198 C 109.369 106.304,109.725 106.131,109.989 105.814 C 110.252 105.496,111.263 104.770,112.234 104.201 C 113.205 103.632,114.000 102.983,114.000 102.760 C 114.000 102.536,114.179 102.464,114.398 102.599 C 114.617 102.734,115.277 102.340,115.864 101.723 C 116.451 101.105,116.782 100.856,116.600 101.168 C 116.395 101.520,116.670 101.444,117.322 100.968 C 117.901 100.546,118.381 100.054,118.387 99.876 C 118.394 99.698,118.580 99.664,118.800 99.800 C 119.020 99.936,119.200 99.846,119.200 99.600 C 119.200 99.354,119.359 99.251,119.553 99.371 C 119.747 99.491,120.332 99.263,120.853 98.864 C 121.374 98.466,122.880 97.534,124.200 96.794 C 125.520 96.053,126.660 95.300,126.734 95.121 C 126.808 94.942,127.033 94.897,127.234 95.021 C 127.435 95.145,127.600 95.046,127.600 94.800 C 127.600 94.554,127.780 94.464,128.000 94.600 C 128.220 94.736,128.400 94.657,128.400 94.424 C 128.400 94.191,128.535 94.036,128.700 94.079 C 129.263 94.228,130.800 93.547,130.800 93.149 C 130.800 92.931,130.980 92.864,131.200 93.000 C 131.420 93.136,131.600 93.046,131.600 92.800 C 131.600 92.554,131.780 92.464,132.000 92.600 C 132.220 92.736,132.400 92.646,132.400 92.400 C 132.400 92.154,132.580 92.064,132.800 92.200 C 133.020 92.336,133.200 92.227,133.200 91.957 C 133.200 91.687,133.321 91.587,133.468 91.735 C 133.616 91.882,134.156 91.728,134.668 91.392 C 135.181 91.056,135.600 90.887,135.600 91.016 C 135.600 91.145,136.455 90.794,137.500 90.238 C 138.545 89.681,140.435 88.847,141.700 88.384 C 142.965 87.921,144.000 87.414,144.000 87.257 C 144.000 86.993,144.735 86.853,146.500 86.779 C 146.885 86.763,147.200 86.571,147.200 86.352 C 147.200 86.132,147.380 86.064,147.600 86.200 C 147.820 86.336,148.000 86.246,148.000 86.000 C 148.000 85.754,148.180 85.664,148.400 85.800 C 148.620 85.936,148.800 85.846,148.800 85.600 C 148.800 85.354,148.980 85.264,149.200 85.400 C 149.420 85.536,149.600 85.427,149.600 85.157 C 149.600 84.887,149.713 84.780,149.851 84.917 C 149.989 85.055,150.694 84.921,151.418 84.618 C 152.142 84.316,152.835 84.168,152.958 84.291 C 153.080 84.414,153.410 84.324,153.690 84.091 C 153.971 83.858,154.336 83.657,154.503 83.644 C 154.670 83.631,155.840 83.320,157.103 82.952 C 158.366 82.584,159.760 82.242,160.200 82.193 C 160.640 82.143,161.045 82.057,161.100 82.001 C 161.155 81.945,161.380 81.855,161.600 81.800 C 161.820 81.745,162.090 81.655,162.200 81.600 C 162.310 81.545,162.580 81.455,162.800 81.400 C 163.020 81.345,163.290 81.255,163.400 81.200 C 163.510 81.145,163.780 81.055,164.000 81.000 C 164.220 80.945,164.445 80.863,164.500 80.817 C 164.598 80.736,165.286 80.631,168.691 80.178 C 169.621 80.055,170.481 79.792,170.603 79.594 C 170.726 79.397,171.072 79.329,171.372 79.445 C 171.673 79.560,172.040 79.459,172.187 79.221 C 172.335 78.982,172.588 78.869,172.750 78.969 C 172.912 79.069,173.754 78.977,174.622 78.764 C 176.864 78.214,177.703 78.107,182.196 77.801 C 184.394 77.651,186.335 77.440,186.509 77.332 C 186.684 77.224,187.766 77.059,188.913 76.964 C 190.061 76.869,191.450 76.688,192.000 76.562 C 194.791 75.923,213.090 75.846,214.231 76.469 C 214.434 76.580,215.410 76.703,216.400 76.743 C 217.390 76.783,219.163 77.008,220.339 77.244 C 221.515 77.480,222.820 77.583,223.239 77.474 C 223.657 77.365,224.086 77.415,224.192 77.587 C 224.298 77.758,225.603 77.932,227.092 77.974 C 230.474 78.067,231.313 78.190,233.768 78.952 C 234.851 79.288,235.873 79.478,236.041 79.375 C 236.208 79.272,236.448 79.354,236.574 79.559 C 236.817 79.951,238.731 80.314,241.400 80.475 C 242.280 80.528,243.106 80.722,243.236 80.906 C 243.366 81.090,243.906 81.298,244.436 81.368 C 244.966 81.437,245.670 81.598,246.000 81.724 C 246.895 82.067,251.724 83.282,252.300 83.309 C 252.575 83.323,252.800 83.465,252.800 83.627 C 252.800 83.788,253.745 84.144,254.900 84.417 C 256.055 84.690,257.978 85.343,259.174 85.868 C 260.369 86.392,261.764 86.856,262.274 86.898 C 262.783 86.940,263.200 87.100,263.200 87.254 C 263.200 87.408,264.055 87.835,265.100 88.202 C 266.145 88.570,267.630 89.157,268.400 89.507 C 269.170 89.858,269.935 90.112,270.100 90.072 C 270.265 90.032,270.400 90.152,270.400 90.337 C 270.400 90.658,273.001 91.596,273.764 91.550 C 273.964 91.538,274.288 91.814,274.484 92.164 C 274.680 92.514,275.057 92.800,275.323 92.800 C 275.589 92.800,276.660 93.254,277.703 93.810 C 278.746 94.365,279.605 94.680,279.612 94.510 C 279.619 94.339,279.808 94.515,280.032 94.900 C 280.256 95.285,280.614 95.600,280.828 95.600 C 281.041 95.600,281.932 96.052,282.808 96.605 C 283.684 97.158,284.400 97.511,284.400 97.389 C 284.400 97.268,284.625 97.363,284.900 97.601 C 286.056 98.602,289.749 100.755,290.021 100.587 C 290.183 100.487,290.424 100.685,290.555 101.028 C 290.687 101.370,290.976 101.539,291.197 101.402 C 291.419 101.265,291.600 101.354,291.600 101.600 C 291.600 101.846,291.761 101.948,291.958 101.826 C 292.155 101.704,292.421 101.877,292.549 102.210 C 292.776 102.804,295.010 104.314,295.800 104.409 C 296.020 104.435,296.346 104.718,296.525 105.037 C 296.703 105.356,296.999 105.524,297.183 105.411 C 297.366 105.297,297.624 105.485,297.755 105.828 C 297.887 106.170,298.157 106.350,298.355 106.228 C 298.554 106.105,298.829 106.299,298.968 106.660 C 299.106 107.020,299.306 107.228,299.412 107.121 C 299.518 107.015,300.349 107.614,301.258 108.453 C 302.167 109.293,303.047 109.895,303.213 109.792 C 303.380 109.689,303.629 109.899,303.768 110.260 C 303.906 110.620,304.125 110.809,304.254 110.679 C 304.383 110.550,304.941 110.982,305.494 111.639 C 306.047 112.296,306.584 112.749,306.687 112.646 C 306.791 112.543,307.422 113.081,308.091 113.842 C 308.759 114.604,309.381 115.153,309.471 115.062 C 309.562 114.971,310.483 115.738,311.518 116.766 C 312.553 117.795,312.950 118.077,312.400 117.394 C 311.850 116.712,312.165 116.946,313.100 117.915 C 314.035 118.884,314.800 119.604,314.800 119.514 C 314.800 119.424,316.650 121.162,318.912 123.375 C 321.173 125.589,323.020 127.490,323.015 127.600 C 323.010 127.710,323.732 128.520,324.620 129.400 C 325.608 130.379,325.756 130.612,325.000 130.000 C 324.320 129.450,324.614 129.855,325.652 130.900 C 326.691 131.945,327.448 132.800,327.335 132.800 C 327.129 132.800,331.059 137.634,332.945 139.700 C 333.497 140.305,333.825 140.806,333.674 140.813 C 333.524 140.820,333.760 141.097,334.200 141.430 C 334.640 141.762,334.943 142.072,334.874 142.117 C 334.505 142.360,335.356 143.554,335.742 143.334 C 335.994 143.190,336.071 143.215,335.912 143.390 C 335.588 143.749,338.715 148.400,339.282 148.400 C 339.483 148.400,339.544 148.568,339.417 148.772 C 339.291 148.977,339.362 149.253,339.575 149.385 C 339.789 149.517,340.450 150.519,341.045 151.612 C 341.640 152.706,342.289 153.600,342.487 153.600 C 342.685 153.600,342.736 153.780,342.600 154.000 C 342.464 154.220,342.543 154.400,342.776 154.400 C 343.009 154.400,343.163 154.535,343.118 154.700 C 342.878 155.573,345.464 159.331,346.053 158.967 C 346.244 158.849,346.400 158.943,346.400 159.176 C 346.400 159.831,348.952 159.677,349.824 158.970 C 350.251 158.624,350.330 158.470,350.000 158.629 C 349.670 158.788,349.830 158.501,350.356 157.991 C 351.551 156.833,351.360 151.111,349.983 146.800 C 349.526 145.370,349.081 143.238,348.994 142.062 C 348.907 140.886,348.625 139.671,348.369 139.362 C 348.112 139.053,348.036 138.800,348.200 138.800 C 348.364 138.800,348.274 138.530,348.000 138.200 C 347.726 137.870,347.636 137.600,347.800 137.600 C 347.964 137.600,347.851 137.302,347.549 136.939 C 347.247 136.575,347.045 136.215,347.100 136.139 C 347.155 136.062,347.187 135.955,347.171 135.900 C 347.156 135.845,347.057 135.088,346.952 134.217 C 346.847 133.347,346.591 132.430,346.384 132.180 C 346.177 131.931,346.121 131.612,346.260 131.473 C 346.400 131.333,346.286 130.945,346.008 130.610 C 345.730 130.274,345.620 130.000,345.765 130.000 C 345.910 130.000,345.803 129.595,345.528 129.100 C 345.253 128.605,345.022 128.080,345.014 127.933 C 345.006 127.787,344.877 127.544,344.728 127.394 C 344.578 127.244,344.545 126.888,344.655 126.601 C 344.765 126.315,344.670 125.967,344.445 125.828 C 344.219 125.688,344.136 125.310,344.260 124.987 C 344.384 124.664,344.286 124.400,344.043 124.400 C 343.799 124.400,343.630 124.265,343.666 124.100 C 343.783 123.564,343.121 121.600,342.823 121.600 C 342.664 121.600,342.533 121.354,342.533 121.052 C 342.533 119.959,341.487 116.800,341.124 116.800 C 340.920 116.800,340.855 116.635,340.980 116.432 C 341.105 116.230,340.981 115.825,340.704 115.532 C 340.427 115.240,340.139 114.640,340.063 114.200 C 339.988 113.760,339.762 113.340,339.561 113.266 C 339.360 113.192,339.297 112.967,339.421 112.766 C 339.545 112.565,339.457 112.400,339.224 112.400 C 338.991 112.400,338.839 112.265,338.887 112.100 C 339.075 111.449,336.690 105.978,336.065 105.629 C 335.699 105.424,335.446 105.153,335.503 105.027 C 335.661 104.672,331.159 95.838,330.650 95.506 C 330.403 95.344,330.366 95.209,330.570 95.206 C 330.773 95.203,330.568 94.795,330.115 94.300 C 329.661 93.805,328.906 92.635,328.437 91.700 C 327.968 90.765,327.397 90.000,327.168 90.000 C 326.940 90.000,326.865 89.819,327.002 89.597 C 327.139 89.376,326.970 89.087,326.628 88.955 C 326.285 88.824,326.105 88.554,326.228 88.355 C 326.350 88.157,326.170 87.887,325.828 87.755 C 325.485 87.624,325.297 87.367,325.409 87.185 C 325.521 87.004,325.205 86.569,324.707 86.220 C 324.208 85.870,323.853 85.494,323.917 85.382 C 324.157 84.967,322.638 82.853,322.265 83.084 C 322.051 83.216,321.996 83.130,322.142 82.894 C 322.288 82.658,321.802 81.823,321.063 81.039 C 320.324 80.256,319.790 79.543,319.876 79.457 C 319.963 79.370,319.496 78.847,318.839 78.294 C 318.182 77.741,317.750 77.183,317.879 77.054 C 318.009 76.925,317.820 76.706,317.460 76.568 C 317.099 76.429,316.893 76.173,317.001 75.998 C 317.109 75.824,316.581 75.139,315.828 74.478 C 315.074 73.817,314.543 73.191,314.646 73.087 C 314.749 72.984,314.272 72.427,313.586 71.850 C 312.900 71.272,312.478 70.800,312.648 70.800 C 312.819 70.800,309.662 67.550,305.634 63.579 C 301.605 59.607,298.236 56.430,298.148 56.519 C 298.059 56.608,297.202 55.943,296.243 55.040 C 294.017 52.946,291.914 51.372,291.513 51.500 C 291.341 51.555,291.200 51.450,291.200 51.267 C 291.200 51.084,290.448 50.330,289.530 49.592 C 288.611 48.854,287.997 48.509,288.165 48.825 C 288.332 49.141,288.098 48.950,287.644 48.400 C 287.189 47.850,286.814 47.569,286.809 47.776 C 286.804 47.984,286.536 47.804,286.213 47.376 C 285.890 46.949,285.620 46.755,285.613 46.944 C 285.606 47.134,285.246 46.864,284.813 46.344 C 284.381 45.825,284.021 45.535,284.013 45.700 C 284.006 45.865,283.633 45.633,283.185 45.185 C 282.737 44.737,282.216 44.466,282.027 44.583 C 281.838 44.700,281.576 44.515,281.445 44.172 C 281.313 43.830,281.043 43.650,280.845 43.772 C 280.646 43.895,280.376 43.715,280.245 43.372 C 280.113 43.030,279.824 42.861,279.603 42.998 C 279.381 43.135,279.195 43.102,279.189 42.924 C 279.175 42.504,276.010 40.569,275.551 40.700 C 275.358 40.755,275.200 40.609,275.200 40.376 C 275.200 40.143,275.039 40.052,274.842 40.174 C 274.645 40.296,274.376 40.115,274.245 39.772 C 274.113 39.430,273.840 39.252,273.637 39.377 C 273.434 39.502,273.208 39.439,273.134 39.235 C 272.952 38.732,259.298 32.035,259.021 32.312 C 258.899 32.434,258.800 32.323,258.800 32.067 C 258.800 31.810,258.665 31.629,258.500 31.665 C 258.335 31.700,257.680 31.515,257.045 31.254 C 256.410 30.992,255.600 30.728,255.245 30.667 C 254.890 30.606,254.038 30.258,253.351 29.894 C 252.664 29.530,251.989 29.345,251.851 29.483 C 251.713 29.621,251.600 29.515,251.600 29.249 C 251.600 28.983,251.375 28.802,251.100 28.847 C 250.825 28.892,250.060 28.706,249.400 28.434 C 248.740 28.162,247.885 27.915,247.500 27.884 C 247.115 27.854,246.800 27.706,246.800 27.555 C 246.800 27.312,244.476 26.656,242.200 26.257 C 241.760 26.180,240.770 25.838,240.000 25.497 C 239.230 25.156,238.060 24.778,237.400 24.659 C 236.740 24.539,235.840 24.344,235.400 24.226 C 234.960 24.107,233.790 23.932,232.800 23.836 C 231.810 23.740,230.955 23.625,230.900 23.581 C 230.845 23.536,230.620 23.455,230.400 23.400 C 230.180 23.345,229.910 23.255,229.800 23.200 C 229.690 23.145,229.465 23.075,229.300 23.044 C 229.135 23.013,228.745 22.826,228.433 22.629 C 228.121 22.431,226.501 22.223,224.833 22.166 C 223.165 22.110,221.350 21.966,220.800 21.847 C 216.548 20.928,213.035 20.486,209.513 20.429 C 207.251 20.393,204.680 20.195,203.800 19.991 C 201.893 19.548,198.197 19.552,196.800 20.000 M284.000 158.125 C 284.000 158.194,284.585 158.779,285.300 159.425 L 286.600 160.600 285.425 159.300 C 284.330 158.088,284.000 157.816,284.000 158.125 M290.000 164.200 C 290.746 164.970,291.447 165.600,291.557 165.600 C 291.667 165.600,291.146 164.970,290.400 164.200 C 289.654 163.430,288.953 162.800,288.843 162.800 C 288.733 162.800,289.254 163.430,290.000 164.200 M251.583 194.900 C 252.564 195.945,253.419 196.800,253.483 196.800 C 253.784 196.800,253.466 196.441,251.700 194.783 L 249.800 193.000 251.583 194.900 M321.724 235.800 C 321.726 237.120,321.801 237.612,321.890 236.893 C 321.979 236.174,321.977 235.094,321.886 234.493 C 321.795 233.892,321.722 234.480,321.724 235.800 M321.731 255.400 C 321.733 256.940,321.805 257.521,321.892 256.691 C 321.979 255.861,321.977 254.601,321.889 253.891 C 321.800 253.181,321.729 253.860,321.731 255.400 M253.381 296.100 L 251.800 297.800 253.500 296.219 C 255.081 294.748,255.384 294.400,255.081 294.400 C 255.016 294.400,254.251 295.165,253.381 296.100 M249.600 299.800 C 248.628 300.790,247.923 301.600,248.033 301.600 C 248.143 301.600,249.028 300.790,250.000 299.800 C 250.972 298.810,251.677 298.000,251.567 298.000 C 251.457 298.000,250.572 298.810,249.600 299.800 M115.400 331.600 C 116.483 332.700,117.460 333.600,117.570 333.600 C 117.680 333.600,116.883 332.700,115.800 331.600 C 114.717 330.500,113.740 329.600,113.630 329.600 C 113.520 329.600,114.317 330.500,115.400 331.600 M184.100 366.276 C 184.485 366.376,185.115 366.376,185.500 366.276 C 185.885 366.175,185.570 366.093,184.800 366.093 C 184.030 366.093,183.715 366.175,184.100 366.276 M216.305 366.283 C 216.802 366.379,217.522 366.375,217.905 366.275 C 218.287 366.175,217.880 366.096,217.000 366.101 C 216.120 366.105,215.807 366.187,216.305 366.283 " stroke="none" fill="#c4dc2c" fill-rule="evenodd"></path><path id="path1" d="M222.500 22.276 C 222.885 22.376,223.515 22.376,223.900 22.276 C 224.285 22.175,223.970 22.093,223.200 22.093 C 222.430 22.093,222.115 22.175,222.500 22.276 M100.378 112.651 C 99.620 113.449,99.255 114.024,99.566 113.929 C 100.090 113.769,102.315 111.200,101.930 111.200 C 101.835 111.200,101.137 111.853,100.378 112.651 M312.425 117.431 C 313.181 118.328,313.881 118.997,313.980 118.917 C 314.079 118.838,313.460 118.104,312.605 117.287 L 311.050 115.800 312.425 117.431 M193.059 125.074 C 192.915 125.219,191.813 125.297,190.612 125.248 C 188.660 125.169,182.620 126.000,182.100 126.419 C 182.045 126.464,181.820 126.545,181.600 126.600 C 181.380 126.655,181.065 126.742,180.900 126.792 C 180.735 126.843,180.111 126.853,179.512 126.814 C 178.076 126.719,172.171 127.927,170.400 128.677 C 169.082 129.235,168.575 129.364,166.254 129.729 C 165.735 129.811,164.340 130.254,163.155 130.714 C 160.809 131.624,159.567 132.084,159.100 132.215 C 158.935 132.262,158.710 132.345,158.600 132.400 C 158.490 132.455,158.220 132.545,158.000 132.600 C 157.780 132.655,157.555 132.736,157.500 132.781 C 157.445 132.825,157.104 132.919,156.743 132.989 C 155.484 133.234,151.200 135.312,151.200 135.678 C 151.200 135.881,151.020 135.936,150.800 135.800 C 150.580 135.664,150.400 135.754,150.400 136.000 C 150.400 136.246,150.259 136.360,150.087 136.254 C 149.515 135.900,137.600 142.231,137.600 142.888 C 137.600 143.133,137.488 143.221,137.351 143.084 C 137.105 142.838,134.327 144.714,134.066 145.302 C 133.992 145.469,133.767 145.503,133.566 145.379 C 133.365 145.255,133.200 145.343,133.200 145.576 C 133.200 145.809,133.059 145.955,132.887 145.900 C 132.304 145.714,126.221 150.718,121.280 155.449 C 119.455 157.197,117.911 158.577,117.850 158.516 C 117.604 158.271,114.408 161.290,114.595 161.592 C 114.705 161.770,114.501 162.029,114.140 162.168 C 113.780 162.306,113.565 162.498,113.662 162.595 C 113.759 162.692,112.659 163.998,111.219 165.496 C 106.120 170.803,101.295 176.663,101.502 177.300 C 101.556 177.465,101.409 177.600,101.176 177.600 C 100.943 177.600,100.855 177.765,100.979 177.966 C 101.103 178.167,101.069 178.392,100.902 178.466 C 99.876 178.921,95.886 185.298,96.030 186.253 C 96.051 186.395,95.874 186.631,95.637 186.777 C 94.543 187.453,87.780 201.647,88.303 202.169 C 88.430 202.296,88.345 202.400,88.114 202.400 C 87.644 202.400,86.663 205.854,86.985 206.375 C 87.098 206.559,86.932 206.924,86.616 207.187 C 85.997 207.700,85.286 209.572,84.999 211.441 C 84.792 212.788,84.496 214.156,84.381 214.300 C 84.336 214.355,84.275 214.535,84.244 214.700 C 84.213 214.865,84.056 215.207,83.895 215.460 C 83.504 216.074,82.361 222.095,82.591 222.325 C 82.691 222.424,82.616 222.797,82.426 223.153 C 82.038 223.877,81.611 225.802,81.305 228.200 C 79.950 238.844,80.425 263.350,82.069 267.551 C 82.295 268.128,82.526 269.410,82.583 270.400 C 82.732 272.967,83.172 275.491,83.688 276.731 C 83.933 277.319,84.171 277.935,84.216 278.100 C 84.262 278.265,84.336 278.445,84.381 278.500 C 84.425 278.555,84.527 278.950,84.607 279.378 C 85.165 282.362,86.155 285.600,86.510 285.600 C 86.743 285.600,86.823 285.710,86.689 285.844 C 86.334 286.199,87.973 290.459,88.826 291.400 C 89.225 291.840,89.562 292.335,89.576 292.500 C 89.589 292.665,89.612 292.845,89.628 292.900 C 89.643 292.955,89.722 293.505,89.803 294.122 C 89.966 295.364,91.538 298.860,92.107 299.245 C 92.306 299.379,92.427 299.559,92.375 299.645 C 92.173 299.983,92.877 301.600,93.227 301.600 C 93.432 301.600,93.563 301.735,93.518 301.900 C 93.362 302.469,95.156 306.000,95.601 306.000 C 95.846 306.000,95.935 306.181,95.798 306.403 C 95.661 306.624,95.830 306.913,96.172 307.045 C 96.515 307.176,96.695 307.446,96.572 307.645 C 96.450 307.843,96.630 308.113,96.972 308.245 C 97.315 308.376,97.503 308.634,97.389 308.817 C 97.276 309.001,97.444 309.297,97.763 309.475 C 98.082 309.654,98.329 309.953,98.312 310.139 C 98.262 310.696,101.616 315.600,102.048 315.600 C 102.268 315.600,102.346 315.764,102.223 315.964 C 102.099 316.163,102.528 316.773,103.177 317.319 C 103.825 317.865,104.250 318.417,104.121 318.546 C 103.991 318.675,104.180 318.894,104.540 319.032 C 104.901 319.171,105.095 319.446,104.972 319.645 C 104.850 319.843,105.030 320.113,105.372 320.245 C 105.715 320.376,105.911 320.621,105.807 320.788 C 105.577 321.161,110.258 326.282,116.300 332.269 C 118.775 334.722,120.799 336.699,120.798 336.664 C 120.796 336.629,122.265 337.996,124.063 339.702 C 125.860 341.407,127.406 342.727,127.499 342.634 C 127.592 342.542,127.967 342.722,128.334 343.036 C 128.700 343.350,129.180 343.638,129.400 343.676 C 129.620 343.715,130.129 344.165,130.532 344.677 C 130.935 345.189,131.411 345.517,131.590 345.406 C 131.769 345.295,132.019 345.474,132.146 345.802 C 132.272 346.131,132.642 346.400,132.968 346.400 C 133.294 346.400,133.704 346.635,133.880 346.922 C 134.343 347.677,137.030 349.236,137.339 348.928 C 137.482 348.784,137.600 348.868,137.600 349.114 C 137.600 349.650,141.112 352.133,141.869 352.133 C 142.161 352.133,142.400 352.294,142.400 352.490 C 142.400 352.687,142.580 352.736,142.800 352.600 C 143.020 352.464,143.200 352.554,143.200 352.800 C 143.200 353.046,143.380 353.136,143.600 353.000 C 143.820 352.864,144.000 352.973,144.000 353.243 C 144.000 353.513,144.105 353.628,144.233 353.500 C 144.362 353.372,144.818 353.618,145.248 354.048 C 145.678 354.478,146.187 354.731,146.380 354.612 C 146.574 354.493,146.795 354.584,146.872 354.815 C 146.949 355.046,147.414 355.266,147.906 355.303 C 148.398 355.340,148.800 355.507,148.800 355.675 C 148.800 355.940,151.017 357.277,151.296 357.180 C 151.353 357.160,151.940 357.365,152.600 357.636 C 153.260 357.907,153.935 358.100,154.100 358.065 C 154.265 358.029,154.400 358.166,154.400 358.368 C 154.400 358.663,155.578 359.093,157.200 359.392 C 157.310 359.412,157.781 359.641,158.247 359.900 C 158.713 360.160,159.208 360.258,159.347 360.119 C 159.486 359.980,159.600 360.087,159.600 360.357 C 159.600 360.627,159.780 360.736,160.000 360.600 C 160.220 360.464,160.400 360.528,160.400 360.741 C 160.400 361.062,162.615 361.683,164.200 361.806 C 164.420 361.823,165.005 362.060,165.500 362.333 C 165.995 362.605,166.400 362.710,166.400 362.565 C 166.400 362.420,166.670 362.526,167.000 362.800 C 167.330 363.074,167.600 363.164,167.600 363.000 C 167.600 362.836,167.857 362.915,168.170 363.175 C 168.484 363.436,168.979 363.609,169.270 363.561 C 169.562 363.513,170.070 363.578,170.400 363.706 C 170.730 363.834,172.350 364.225,174.000 364.574 C 175.650 364.923,177.450 365.321,178.000 365.458 C 179.515 365.835,182.015 366.088,183.799 366.043 C 184.679 366.021,185.939 366.179,186.599 366.392 C 190.832 367.763,208.939 368.049,213.432 366.817 C 215.057 366.371,217.335 366.021,218.493 366.039 C 219.652 366.057,220.960 366.055,221.400 366.035 C 222.455 365.986,226.091 365.160,226.600 364.853 C 226.820 364.721,227.135 364.587,227.300 364.556 C 227.465 364.525,227.645 364.464,227.700 364.419 C 227.755 364.375,228.340 364.285,229.000 364.220 C 229.660 364.155,230.650 363.972,231.200 363.813 C 231.750 363.655,232.552 363.533,232.982 363.544 C 233.411 363.554,233.996 363.369,234.282 363.132 C 234.567 362.896,234.800 362.836,234.800 363.000 C 234.800 363.164,235.070 363.074,235.400 362.800 C 235.730 362.526,236.000 362.420,236.000 362.565 C 236.000 362.710,236.404 362.612,236.899 362.347 C 237.393 362.083,238.310 361.826,238.937 361.777 C 240.170 361.680,243.247 360.438,243.645 359.877 C 243.779 359.687,244.007 359.561,244.151 359.596 C 244.779 359.751,246.800 359.101,246.800 358.745 C 246.800 358.529,246.965 358.455,247.168 358.580 C 247.370 358.705,247.799 358.544,248.120 358.223 C 248.442 357.901,248.816 357.750,248.952 357.886 C 249.089 358.022,249.200 357.963,249.200 357.754 C 249.200 357.545,249.685 357.334,250.278 357.285 C 250.870 357.236,251.498 356.972,251.671 356.698 C 251.845 356.424,251.996 356.380,252.007 356.600 C 252.017 356.820,252.290 356.651,252.613 356.224 C 252.936 355.796,253.200 355.576,253.200 355.734 C 253.200 355.892,253.785 355.711,254.500 355.332 C 255.215 354.953,256.041 354.602,256.335 354.552 C 256.629 354.502,257.169 354.202,257.535 353.887 C 257.901 353.572,259.325 352.723,260.700 352.001 C 262.075 351.279,263.200 350.523,263.200 350.321 C 263.200 350.118,263.380 350.064,263.600 350.200 C 263.820 350.336,264.000 350.246,264.000 350.000 C 264.000 349.754,264.180 349.664,264.400 349.800 C 264.620 349.936,264.800 349.846,264.800 349.600 C 264.800 349.354,264.973 349.260,265.185 349.391 C 265.397 349.522,265.922 349.278,266.352 348.848 C 266.782 348.418,267.216 348.149,267.317 348.250 C 267.418 348.351,267.961 347.886,268.524 347.217 C 269.088 346.548,269.718 346.000,269.925 346.000 C 270.133 346.000,270.603 345.595,270.970 345.100 C 271.337 344.605,271.510 344.470,271.354 344.800 C 271.183 345.163,271.452 345.065,272.035 344.554 C 272.566 344.089,273.810 343.242,274.800 342.673 C 278.067 340.794,298.115 320.781,297.423 320.090 C 297.303 319.970,297.567 319.618,298.009 319.309 C 298.452 318.999,298.719 318.593,298.604 318.407 C 298.489 318.221,298.531 318.007,298.698 317.933 C 298.864 317.858,299.450 317.274,300.000 316.634 C 300.550 315.994,300.730 315.598,300.400 315.754 C 300.070 315.910,300.205 315.737,300.700 315.370 C 301.195 315.003,301.600 314.498,301.600 314.247 C 301.600 313.997,301.967 313.563,302.416 313.283 C 302.864 313.003,303.123 312.600,302.992 312.387 C 302.860 312.174,302.954 312.000,303.200 312.000 C 303.446 312.000,303.536 311.820,303.400 311.600 C 303.264 311.380,303.354 311.200,303.600 311.200 C 303.846 311.200,303.944 311.032,303.817 310.828 C 303.691 310.623,303.771 310.342,303.995 310.203 C 304.615 309.820,307.676 305.201,307.315 305.194 C 307.142 305.191,307.234 305.039,307.520 304.858 C 307.806 304.676,308.069 304.144,308.104 303.674 C 308.140 303.205,308.412 302.727,308.710 302.613 C 309.007 302.499,309.139 302.224,309.002 302.003 C 308.865 301.781,308.931 301.600,309.149 301.600 C 309.516 301.600,310.234 299.996,310.025 299.645 C 309.973 299.559,310.109 299.379,310.326 299.245 C 310.543 299.110,310.783 298.640,310.860 298.200 C 310.937 297.760,311.235 297.215,311.522 296.989 C 311.810 296.763,312.088 296.313,312.142 295.989 C 312.195 295.665,312.448 295.019,312.705 294.553 C 312.962 294.087,313.058 293.592,312.919 293.453 C 312.780 293.314,312.862 293.200,313.101 293.200 C 313.502 293.200,314.856 289.785,315.004 288.400 C 315.040 288.070,315.385 287.080,315.771 286.200 C 316.157 285.320,316.533 284.330,316.606 284.000 C 316.679 283.670,316.775 283.355,316.819 283.300 C 316.864 283.245,316.938 283.065,316.985 282.900 C 317.031 282.735,317.173 282.330,317.301 282.000 C 317.429 281.670,317.537 281.130,317.543 280.800 C 317.552 280.258,317.819 278.908,318.017 278.400 C 318.060 278.290,318.073 278.065,318.047 277.900 C 318.021 277.735,318.199 277.600,318.443 277.600 C 318.686 277.600,318.784 277.336,318.660 277.013 C 318.536 276.690,318.616 276.314,318.837 276.177 C 319.058 276.041,319.201 275.630,319.156 275.265 C 319.110 274.899,319.194 274.150,319.341 273.600 C 319.489 273.050,319.686 271.970,319.778 271.200 C 319.870 270.430,319.981 269.755,320.023 269.700 C 320.065 269.645,320.138 269.465,320.185 269.300 C 320.231 269.135,320.397 268.712,320.554 268.360 C 320.711 268.008,320.794 267.558,320.738 267.360 C 320.683 267.162,320.856 265.830,321.123 264.400 C 321.390 262.970,321.610 261.440,321.612 261.000 C 321.614 260.560,321.704 258.490,321.812 256.400 C 322.449 244.150,321.707 226.171,320.484 224.217 C 320.131 223.653,319.989 222.957,319.746 220.600 C 319.632 219.500,319.435 218.330,319.306 218.000 C 319.178 217.670,319.108 217.246,319.151 217.058 C 319.193 216.870,319.020 216.465,318.765 216.158 C 318.510 215.851,318.419 215.600,318.561 215.600 C 318.704 215.600,318.546 215.069,318.210 214.420 C 317.875 213.771,317.600 212.721,317.600 212.087 C 317.600 211.452,317.480 210.813,317.332 210.666 C 317.185 210.518,316.996 209.723,316.913 208.899 C 316.829 208.075,316.589 207.340,316.378 207.266 C 316.167 207.192,316.097 206.967,316.221 206.766 C 316.345 206.565,316.257 206.400,316.024 206.400 C 315.791 206.400,315.624 206.265,315.654 206.100 C 315.761 205.497,315.087 203.177,314.742 202.964 C 314.547 202.843,314.491 202.577,314.617 202.372 C 314.744 202.168,314.646 202.000,314.400 202.000 C 314.154 202.000,314.064 201.820,314.200 201.600 C 314.336 201.380,314.246 201.200,314.000 201.200 C 313.754 201.200,313.655 201.035,313.780 200.832 C 313.905 200.630,313.691 200.148,313.304 199.761 C 312.917 199.374,312.645 198.999,312.700 198.929 C 312.755 198.858,312.778 198.710,312.750 198.600 C 312.723 198.490,312.655 198.220,312.600 198.000 C 312.545 197.780,312.455 197.510,312.400 197.400 C 312.345 197.290,312.276 197.065,312.247 196.900 C 312.047 195.782,310.663 192.800,310.343 192.800 C 310.129 192.800,310.056 192.632,310.183 192.428 C 310.309 192.223,310.227 191.940,310.000 191.800 C 309.773 191.660,309.691 191.377,309.817 191.172 C 309.944 190.968,309.846 190.800,309.600 190.800 C 309.354 190.800,309.260 190.627,309.391 190.415 C 309.522 190.203,309.263 189.663,308.815 189.215 C 308.367 188.767,308.017 188.295,308.037 188.167 C 308.057 188.039,307.621 187.426,307.067 186.804 C 306.513 186.182,306.166 185.567,306.296 185.437 C 306.427 185.307,306.313 185.200,306.043 185.200 C 305.773 185.200,305.664 185.020,305.800 184.800 C 305.936 184.580,305.846 184.400,305.600 184.400 C 305.354 184.400,305.264 184.220,305.400 184.000 C 305.536 183.780,305.446 183.600,305.200 183.600 C 304.954 183.600,304.847 183.447,304.963 183.260 C 305.192 182.890,302.917 179.600,302.432 179.600 C 302.268 179.600,302.133 179.369,302.133 179.088 C 302.133 178.390,300.798 176.400,300.330 176.400 C 300.123 176.400,300.041 176.258,300.148 176.084 C 300.255 175.911,299.643 175.011,298.787 174.084 C 297.932 173.158,297.321 172.400,297.431 172.400 C 297.540 172.400,296.490 171.095,295.097 169.500 C 291.744 165.659,280.681 154.606,280.300 154.714 C 280.135 154.761,280.000 154.629,280.000 154.419 C 280.000 153.960,274.334 149.133,274.085 149.381 C 273.989 149.477,273.459 149.018,272.906 148.361 C 272.353 147.704,271.811 147.256,271.701 147.366 C 271.591 147.476,271.169 147.169,270.764 146.683 C 270.358 146.197,270.021 145.935,270.013 146.100 C 270.006 146.265,269.633 146.033,269.185 145.585 C 268.737 145.137,268.216 144.866,268.027 144.983 C 267.838 145.100,267.576 144.915,267.445 144.572 C 267.313 144.230,267.024 144.061,266.803 144.198 C 266.581 144.335,266.400 144.253,266.400 144.015 C 266.400 143.777,265.905 143.364,265.300 143.098 C 264.695 142.831,263.963 142.292,263.673 141.899 C 263.383 141.507,262.990 141.283,262.800 141.400 C 262.611 141.517,262.340 141.427,262.200 141.200 C 262.060 140.973,261.777 140.891,261.572 141.017 C 261.368 141.144,261.200 141.046,261.200 140.800 C 261.200 140.554,261.039 140.452,260.842 140.574 C 260.645 140.696,260.376 140.515,260.245 140.172 C 260.113 139.830,259.824 139.661,259.603 139.798 C 259.381 139.935,259.200 139.846,259.200 139.600 C 259.200 139.354,259.035 139.255,258.834 139.379 C 258.633 139.503,258.405 139.414,258.327 139.181 C 258.249 138.947,257.916 138.717,257.586 138.668 C 257.256 138.620,256.359 138.203,255.593 137.741 C 253.550 136.511,250.000 134.800,250.000 135.045 C 250.000 135.162,249.715 134.973,249.368 134.625 C 249.020 134.277,248.582 134.087,248.395 134.203 C 248.208 134.318,247.940 134.227,247.800 134.000 C 247.660 133.773,247.377 133.691,247.172 133.817 C 246.968 133.944,246.800 133.846,246.800 133.600 C 246.800 133.354,246.620 133.264,246.400 133.400 C 246.180 133.536,246.000 133.488,246.000 133.292 C 246.000 132.939,239.885 130.985,239.363 131.171 C 239.213 131.224,238.970 131.075,238.823 130.838 C 238.616 130.502,234.333 129.173,231.800 128.659 C 231.580 128.614,231.163 128.430,230.873 128.249 C 230.584 128.068,230.240 128.026,230.110 128.156 C 229.980 128.287,229.674 128.228,229.431 128.025 C 228.931 127.611,226.291 127.139,223.600 126.983 C 222.610 126.926,221.284 126.678,220.654 126.432 C 218.046 125.414,193.907 124.226,193.059 125.074 M323.238 128.500 C 323.332 128.555,324.127 129.230,325.004 130.000 L 326.600 131.400 325.222 129.900 C 324.463 129.075,323.668 128.400,323.455 128.400 C 323.241 128.400,323.144 128.445,323.238 128.500 M77.400 135.600 C 77.002 136.040,76.856 136.400,77.076 136.400 C 77.296 136.400,77.802 136.040,78.200 135.600 C 78.598 135.160,78.744 134.800,78.524 134.800 C 78.304 134.800,77.798 135.160,77.400 135.600 M48.531 159.800 C 48.533 161.340,48.605 161.921,48.692 161.091 C 48.779 160.261,48.777 159.001,48.689 158.291 C 48.600 157.581,48.529 158.260,48.531 159.800 M210.800 175.227 C 212.450 175.294,214.025 175.517,214.300 175.723 C 214.575 175.929,214.800 175.964,214.800 175.800 C 214.800 175.636,215.074 175.730,215.410 176.008 C 215.745 176.286,216.133 176.400,216.273 176.260 C 216.412 176.121,216.723 176.162,216.963 176.351 C 217.565 176.825,221.363 177.687,222.264 177.554 C 222.669 177.494,223.902 177.912,225.005 178.482 C 226.109 179.051,227.459 179.581,228.005 179.659 C 228.552 179.736,229.090 179.890,229.200 180.000 C 229.543 180.344,233.068 182.000,233.457 182.000 C 233.661 182.000,234.794 182.623,235.976 183.385 C 237.158 184.146,238.259 184.687,238.421 184.587 C 238.583 184.487,238.824 184.685,238.955 185.028 C 239.087 185.370,239.376 185.539,239.597 185.402 C 239.819 185.265,240.000 185.373,240.000 185.643 C 240.000 185.913,240.119 186.014,240.264 185.869 C 240.409 185.724,240.782 185.967,241.091 186.409 C 241.401 186.852,241.804 187.121,241.985 187.009 C 242.167 186.897,242.429 187.099,242.568 187.460 C 242.706 187.820,242.911 188.022,243.024 187.910 C 243.136 187.797,244.257 188.655,245.514 189.817 C 246.771 190.979,247.964 191.929,248.164 191.929 C 248.364 191.929,248.688 192.214,248.884 192.564 C 249.080 192.914,249.463 193.200,249.737 193.200 C 250.321 193.200,253.948 196.794,253.383 196.813 C 253.172 196.821,253.397 197.158,253.883 197.564 C 254.369 197.969,254.678 198.389,254.570 198.497 C 254.462 198.605,255.015 199.257,255.800 199.947 C 256.586 200.636,257.087 201.206,256.914 201.213 C 256.741 201.221,256.982 201.546,257.448 201.936 C 257.915 202.326,258.416 203.020,258.561 203.478 C 258.707 203.936,259.225 204.755,259.713 205.298 C 260.201 205.840,261.230 207.480,262.000 208.942 C 262.770 210.403,263.546 211.599,263.724 211.599 C 263.902 211.600,263.935 211.781,263.798 212.003 C 263.661 212.224,263.793 212.499,264.090 212.613 C 264.388 212.727,264.660 213.205,264.696 213.674 C 264.731 214.144,264.994 214.676,265.280 214.858 C 265.566 215.039,265.661 215.191,265.492 215.194 C 265.322 215.197,265.522 215.875,265.935 216.700 C 266.589 218.005,267.175 219.775,267.160 220.400 C 267.158 220.510,267.635 221.680,268.221 223.000 C 268.807 224.320,269.346 226.030,269.419 226.800 C 269.492 227.570,269.640 228.740,269.748 229.400 C 269.857 230.060,270.058 231.320,270.195 232.200 C 270.332 233.080,270.548 234.070,270.674 234.400 C 271.078 235.460,271.134 236.838,271.126 245.600 C 271.118 254.492,271.064 255.906,270.667 257.600 C 270.538 258.150,270.327 259.410,270.199 260.400 C 269.827 263.273,269.765 263.568,269.470 263.863 C 269.316 264.017,269.301 264.730,269.435 265.448 C 269.614 266.401,269.390 267.380,268.606 269.076 C 268.016 270.354,267.463 271.670,267.378 272.000 C 267.293 272.330,267.065 273.241,266.871 274.023 C 266.677 274.806,266.201 275.931,265.813 276.523 C 265.425 277.116,265.264 277.603,265.454 277.606 C 265.644 277.609,265.566 277.761,265.280 277.942 C 264.994 278.124,264.731 278.661,264.695 279.136 C 264.659 279.611,264.458 280.000,264.248 280.000 C 264.038 280.000,263.972 280.105,264.100 280.234 C 264.229 280.362,264.034 280.818,263.667 281.247 C 263.300 281.675,262.988 282.155,262.974 282.313 C 262.942 282.657,261.740 284.772,260.512 286.646 C 260.024 287.391,259.700 288.000,259.793 288.000 C 259.886 288.000,259.519 288.478,258.977 289.063 C 258.435 289.647,258.074 290.207,258.174 290.307 C 258.274 290.407,257.818 290.941,257.161 291.494 C 256.504 292.047,256.045 292.578,256.141 292.674 C 256.237 292.771,255.650 293.513,254.837 294.325 C 254.023 295.136,253.817 295.443,254.379 295.007 C 254.941 294.570,253.960 295.708,252.200 297.534 C 250.440 299.361,248.055 301.471,246.900 302.223 C 245.745 302.975,244.800 303.783,244.800 304.019 C 244.800 304.254,244.655 304.358,244.479 304.249 C 244.302 304.139,243.492 304.660,242.679 305.405 C 241.865 306.150,241.200 306.684,241.200 306.592 C 241.200 306.446,238.998 307.802,237.784 308.694 C 237.556 308.862,237.107 309.059,236.788 309.132 C 236.469 309.205,236.096 309.445,235.959 309.666 C 235.822 309.887,235.551 310.049,235.355 310.025 C 234.871 309.966,232.270 311.304,231.906 311.800 C 231.744 312.020,231.609 312.062,231.606 311.893 C 231.603 311.725,230.655 312.070,229.500 312.662 C 228.345 313.253,226.917 313.704,226.326 313.664 C 225.736 313.624,225.138 313.776,224.999 314.002 C 224.859 314.228,224.597 314.322,224.416 314.210 C 224.235 314.098,223.234 314.384,222.192 314.845 C 221.150 315.306,219.323 315.752,218.132 315.836 C 216.942 315.920,215.660 316.147,215.284 316.340 C 214.908 316.534,214.369 316.609,214.087 316.508 C 213.805 316.407,213.265 316.450,212.887 316.603 C 211.221 317.278,196.417 317.594,192.000 317.049 C 190.570 316.873,188.770 316.664,188.000 316.586 C 187.230 316.508,186.150 316.347,185.600 316.229 C 185.050 316.110,184.060 315.905,183.400 315.772 C 182.740 315.640,180.785 315.093,179.056 314.558 C 177.327 314.023,175.707 313.617,175.456 313.657 C 175.205 313.696,174.460 313.490,173.800 313.200 C 173.140 312.909,172.465 312.700,172.300 312.735 C 172.135 312.771,172.000 312.609,172.000 312.376 C 172.000 312.143,171.820 312.064,171.600 312.200 C 171.380 312.336,171.200 312.227,171.200 311.957 C 171.200 311.687,171.082 311.585,170.937 311.730 C 170.792 311.875,170.432 311.793,170.137 311.548 C 169.842 311.303,169.600 311.227,169.600 311.380 C 169.600 311.532,169.315 311.373,168.968 311.025 C 168.620 310.677,168.170 310.495,167.968 310.620 C 167.765 310.745,167.600 310.646,167.600 310.400 C 167.600 310.154,167.420 310.064,167.200 310.200 C 166.980 310.336,166.800 310.246,166.800 310.000 C 166.800 309.754,166.635 309.655,166.434 309.779 C 166.233 309.903,166.008 309.837,165.934 309.632 C 165.860 309.428,165.531 309.201,165.201 309.130 C 164.872 309.058,164.422 308.799,164.201 308.554 C 163.981 308.308,162.990 307.678,162.000 307.154 C 161.010 306.629,160.020 305.999,159.800 305.753 C 159.580 305.507,158.770 304.967,158.000 304.553 C 157.230 304.139,156.363 303.482,156.073 303.093 C 155.783 302.705,155.423 302.435,155.273 302.494 C 154.997 302.602,145.550 293.170,145.563 292.800 C 145.567 292.690,145.037 291.998,144.385 291.261 C 143.733 290.525,143.200 289.769,143.200 289.581 C 143.200 289.393,142.885 289.063,142.500 288.848 C 142.115 288.633,141.826 288.309,141.857 288.128 C 141.955 287.566,140.405 284.800,139.992 284.800 C 139.776 284.800,139.642 284.665,139.692 284.500 C 139.816 284.098,137.526 279.200,137.215 279.200 C 137.080 279.200,136.940 278.798,136.903 278.306 C 136.866 277.814,136.646 277.349,136.415 277.272 C 136.184 277.195,136.097 276.967,136.221 276.766 C 136.345 276.565,136.287 276.400,136.090 276.400 C 135.894 276.400,135.715 276.175,135.693 275.900 C 135.594 274.681,134.628 271.773,134.234 271.506 C 133.995 271.344,133.956 271.209,134.146 271.206 C 134.336 271.203,134.238 270.795,133.927 270.300 C 133.616 269.805,133.310 268.680,133.247 267.800 C 133.183 266.920,132.859 265.030,132.527 263.600 C 132.194 262.170,131.864 260.370,131.792 259.600 C 131.262 253.882,131.167 252.156,131.195 248.800 C 131.248 242.523,131.985 233.000,132.418 233.000 C 132.539 233.000,132.769 231.742,133.147 229.000 C 133.329 227.680,133.768 225.948,134.123 225.151 C 134.478 224.354,134.655 223.589,134.517 223.451 C 134.380 223.313,134.454 223.200,134.682 223.200 C 135.048 223.200,135.815 220.295,135.659 219.500 C 135.626 219.335,135.791 219.200,136.024 219.200 C 136.257 219.200,136.345 219.035,136.221 218.834 C 136.097 218.633,136.186 218.405,136.419 218.327 C 136.653 218.249,136.910 217.829,136.991 217.393 C 137.072 216.957,137.153 216.555,137.169 216.500 C 137.186 216.445,137.185 216.285,137.166 216.145 C 137.147 216.004,137.299 215.779,137.504 215.645 C 137.709 215.510,138.849 213.432,140.038 211.026 C 141.227 208.620,142.436 206.370,142.725 206.026 C 144.229 204.234,145.600 202.238,145.600 201.841 C 145.600 201.594,145.978 201.157,146.439 200.869 C 146.900 200.580,147.196 200.263,147.096 200.163 C 146.996 200.063,149.634 197.330,152.957 194.090 C 156.281 190.851,159.060 188.064,159.134 187.898 C 159.208 187.731,159.434 187.698,159.637 187.823 C 159.840 187.948,160.113 187.770,160.245 187.428 C 160.376 187.085,160.633 186.897,160.815 187.009 C 160.996 187.121,161.399 186.852,161.709 186.409 C 162.018 185.967,162.391 185.724,162.536 185.869 C 162.681 186.014,162.800 185.893,162.800 185.600 C 162.800 185.307,162.912 185.179,163.049 185.316 C 163.187 185.453,163.862 185.140,164.549 184.619 C 166.321 183.279,174.519 179.306,175.109 179.503 C 175.379 179.593,175.600 179.461,175.600 179.210 C 175.600 178.958,175.780 178.864,176.000 179.000 C 176.220 179.136,176.400 179.046,176.400 178.800 C 176.400 178.554,176.580 178.464,176.800 178.600 C 177.020 178.736,177.200 178.646,177.200 178.400 C 177.200 178.154,177.380 178.064,177.600 178.200 C 177.820 178.336,178.000 178.257,178.000 178.024 C 178.000 177.791,178.135 177.621,178.300 177.647 C 178.465 177.673,178.690 177.660,178.800 177.618 C 178.910 177.576,179.630 177.480,180.400 177.403 C 182.040 177.240,183.758 176.945,183.900 176.801 C 184.017 176.683,184.090 176.666,186.197 176.246 C 187.075 176.071,187.975 175.814,188.197 175.675 C 188.780 175.310,189.424 175.242,193.058 175.167 C 194.850 175.130,196.497 174.987,196.719 174.850 C 196.941 174.712,199.525 174.714,202.461 174.852 C 205.397 174.991,209.150 175.159,210.800 175.227 " stroke="none" fill="#6c6c74" fill-rule="evenodd"></path></g></svg>